<svg width="260" height="90" viewBox="0 0 260 90" fill="none" xmlns="http://www.w3.org/2000/svg">
<g filter="url(#filter0_d_1_39)">
<rect x="20" y="10" width="220" height="50" rx="25" fill="#8850FF"/>
</g>
<g filter="url(#filter1_d_1_39)">
<rect x="191" y="25" width="15" height="15" rx="7.5" fill="white"/>
<path d="M197.067 29.0824C197.024 29.1362 197 29.2085 197 29.2838C197 29.3591 197.024 29.4314 197.067 29.4852L199.459 32.5L197.067 35.5142C197.024 35.568 197 35.6403 197 35.7156C197 35.7909 197.024 35.8632 197.067 35.917C197.088 35.9433 197.112 35.9642 197.14 35.9784C197.167 35.9927 197.197 36 197.227 36C197.257 36 197.286 35.9927 197.314 35.9784C197.341 35.9642 197.366 35.9433 197.387 35.917L199.93 32.7105C199.975 32.6542 200 32.5786 200 32.5C200 32.4214 199.975 32.3458 199.93 32.2895L197.387 29.083C197.366 29.0567 197.341 29.0358 197.314 29.0216C197.286 29.0073 197.257 29 197.227 29C197.197 29 197.167 29.0073 197.14 29.0216C197.112 29.0358 197.088 29.0567 197.067 29.083V29.0824Z" fill="#111111"/>
</g>
<path d="M63.4702 34.5137L63.0967 38H54.2783V37.729H54.6079C54.896 37.729 55.1279 37.6777 55.3037 37.5752C55.4307 37.5068 55.5283 37.3896 55.5967 37.2236C55.6504 37.1064 55.6772 36.7988 55.6772 36.3008V29.7676C55.6772 29.2598 55.6504 28.9424 55.5967 28.8154C55.543 28.6885 55.4331 28.5786 55.2671 28.4858C55.106 28.3882 54.8862 28.3394 54.6079 28.3394H54.2783V28.0684H59.5737V28.3394H59.1416C58.8535 28.3394 58.6216 28.3906 58.4458 28.4932C58.3188 28.5615 58.2188 28.6787 58.1455 28.8447C58.0918 28.9619 58.0649 29.2695 58.0649 29.7676V36.0957C58.0649 36.6035 58.0942 36.9282 58.1528 37.0698C58.2114 37.2065 58.3262 37.3091 58.4971 37.3774C58.6191 37.4214 58.9146 37.4434 59.3833 37.4434H60.2109C60.7383 37.4434 61.1777 37.3506 61.5293 37.165C61.8809 36.9795 62.1836 36.6865 62.4375 36.2861C62.6963 35.8857 62.9404 35.2949 63.1699 34.5137H63.4702ZM70.311 34.3306H66.5537C66.5977 35.2388 66.8394 35.9565 67.2788 36.4839C67.6157 36.8892 68.021 37.0918 68.4946 37.0918C68.7876 37.0918 69.0537 37.0112 69.293 36.8501C69.5322 36.6841 69.7886 36.3887 70.062 35.9639L70.311 36.125C69.9399 36.8818 69.5298 37.4189 69.0806 37.7363C68.6313 38.0488 68.1113 38.2051 67.5205 38.2051C66.5049 38.2051 65.7358 37.8145 65.2134 37.0332C64.7935 36.4033 64.5835 35.6221 64.5835 34.6895C64.5835 33.5469 64.8911 32.6387 65.5063 31.9648C66.1265 31.2861 66.8516 30.9468 67.6816 30.9468C68.375 30.9468 68.9756 31.2324 69.4834 31.8037C69.9961 32.3701 70.272 33.2124 70.311 34.3306ZM68.5093 33.8398C68.5093 33.0537 68.4653 32.5142 68.3774 32.2212C68.2944 31.9282 68.1626 31.7061 67.9819 31.5547C67.8794 31.4668 67.7427 31.4229 67.5718 31.4229C67.3179 31.4229 67.1104 31.5474 66.9492 31.7964C66.6611 32.231 66.5171 32.8267 66.5171 33.5835V33.8398H68.5093ZM73.8926 28.647V31.1519H75.5186V31.877H73.8926V36.103C73.8926 36.4985 73.9097 36.7549 73.9438 36.8721C73.9829 36.9844 74.0488 37.0771 74.1416 37.1504C74.2344 37.2188 74.3198 37.2529 74.3979 37.2529C74.7153 37.2529 75.0156 37.0112 75.2988 36.5278L75.5186 36.689C75.123 37.6265 74.481 38.0952 73.5923 38.0952C73.1577 38.0952 72.7891 37.9756 72.4863 37.7363C72.1885 37.4922 71.998 37.2212 71.915 36.9233C71.8662 36.7573 71.8418 36.3081 71.8418 35.5757V31.877H70.9482V31.6206C71.5635 31.186 72.0859 30.7295 72.5156 30.251C72.9502 29.7725 73.3286 29.2378 73.6509 28.647H73.8926ZM77.042 32.7192V32.397C77.6084 32.1528 78.0186 31.8379 78.2725 31.4521C78.5312 31.0615 78.6606 30.6611 78.6606 30.251C78.6606 30.1729 78.6436 30.1118 78.6094 30.0679C78.5752 30.0288 78.541 30.0093 78.5068 30.0093C78.4775 30.0093 78.4336 30.0264 78.375 30.0605C78.2334 30.1436 78.0576 30.1851 77.8477 30.1851C77.5596 30.1851 77.3081 30.0728 77.0933 29.8481C76.8833 29.6235 76.7783 29.3599 76.7783 29.0571C76.7783 28.7349 76.9004 28.4517 77.1445 28.2075C77.3887 27.9634 77.6841 27.8413 78.0308 27.8413C78.4507 27.8413 78.8096 28.0049 79.1074 28.332C79.4053 28.6543 79.5542 29.0986 79.5542 29.665C79.5542 30.3633 79.3418 30.9834 78.917 31.5254C78.4971 32.0674 77.8721 32.4653 77.042 32.7192ZM84.9375 30.9614L85.0474 33.2979H84.7983C84.5005 32.6045 84.1904 32.1309 83.8682 31.877C83.5508 31.623 83.2334 31.4961 82.916 31.4961C82.7158 31.4961 82.5449 31.5645 82.4033 31.7012C82.2617 31.833 82.1909 31.9868 82.1909 32.1626C82.1909 32.2944 82.2397 32.4214 82.3374 32.5435C82.4937 32.7437 82.9307 33.0879 83.6484 33.5762C84.3662 34.0596 84.8374 34.4722 85.062 34.814C85.2915 35.1509 85.4062 35.5293 85.4062 35.9492C85.4062 36.3301 85.311 36.7036 85.1206 37.0698C84.9302 37.436 84.6616 37.7168 84.3149 37.9121C83.9683 38.1074 83.585 38.2051 83.165 38.2051C82.8379 38.2051 82.4009 38.1025 81.854 37.8975C81.7075 37.8438 81.6074 37.8169 81.5537 37.8169C81.3926 37.8169 81.2583 37.939 81.1509 38.1831H80.9092L80.792 35.7222H81.041C81.2607 36.3667 81.561 36.8501 81.9419 37.1724C82.3276 37.4946 82.6914 37.6558 83.0332 37.6558C83.2676 37.6558 83.458 37.585 83.6045 37.4434C83.7559 37.2969 83.8315 37.1211 83.8315 36.916C83.8315 36.6816 83.7583 36.479 83.6118 36.3081C83.4653 36.1372 83.1382 35.8784 82.6304 35.5317C81.8833 35.0142 81.3999 34.6187 81.1802 34.3452C80.8579 33.9448 80.6968 33.5029 80.6968 33.0195C80.6968 32.4922 80.8774 32.0161 81.2388 31.5913C81.605 31.1616 82.1323 30.9468 82.8208 30.9468C83.1919 30.9468 83.5508 31.0371 83.8975 31.2178C84.0293 31.291 84.1367 31.3276 84.2197 31.3276C84.3076 31.3276 84.3784 31.3105 84.4321 31.2764C84.4858 31.2373 84.5713 31.1323 84.6885 30.9614H84.9375ZM94.5981 31.2324H96.9053V32.0381H95.5942C95.8335 32.2773 95.9995 32.4946 96.0923 32.6899C96.2095 32.9536 96.2681 33.2295 96.2681 33.5176C96.2681 34.0059 96.1313 34.4307 95.8579 34.792C95.5894 35.1484 95.2207 35.4292 94.752 35.6343C94.2881 35.8345 93.8755 35.9346 93.5142 35.9346C93.4849 35.9346 93.1919 35.9224 92.6353 35.8979C92.4155 35.8979 92.23 35.9712 92.0786 36.1177C91.9321 36.2593 91.8589 36.4302 91.8589 36.6304C91.8589 36.8062 91.9248 36.9502 92.0566 37.0625C92.1934 37.1748 92.4131 37.231 92.7158 37.231L93.9829 37.2163C95.0083 37.2163 95.7139 37.3286 96.0996 37.5532C96.6514 37.8657 96.9272 38.3467 96.9272 38.9961C96.9272 39.4111 96.8003 39.7871 96.5464 40.124C96.2925 40.4658 95.958 40.7173 95.543 40.8784C94.9131 41.1177 94.188 41.2373 93.3677 41.2373C92.7524 41.2373 92.1909 41.1763 91.6831 41.0542C91.1753 40.937 90.8115 40.771 90.5918 40.5562C90.3721 40.3462 90.2622 40.124 90.2622 39.8896C90.2622 39.665 90.3452 39.4624 90.5112 39.2817C90.6821 39.106 90.9971 38.957 91.4561 38.835C90.8213 38.5225 90.5039 38.0879 90.5039 37.5312C90.5039 37.1943 90.6333 36.8672 90.8921 36.5498C91.1509 36.2324 91.561 35.9565 92.1226 35.7222C91.4683 35.4829 90.9946 35.168 90.7017 34.7773C90.4087 34.3867 90.2622 33.9351 90.2622 33.4224C90.2622 32.7534 90.5356 32.1748 91.0825 31.6865C91.6294 31.1934 92.3325 30.9468 93.1919 30.9468C93.646 30.9468 94.1147 31.042 94.5981 31.2324ZM93.3311 31.4009C93.0479 31.4009 92.8086 31.5449 92.6133 31.833C92.418 32.1162 92.3203 32.707 92.3203 33.6055C92.3203 34.333 92.4155 34.8335 92.606 35.1069C92.8013 35.3755 93.0308 35.5098 93.2944 35.5098C93.5874 35.5098 93.8315 35.3755 94.0269 35.1069C94.2222 34.8384 94.3198 34.3159 94.3198 33.5396C94.3198 32.6655 94.21 32.0698 93.9902 31.7524C93.834 31.5181 93.6143 31.4009 93.3311 31.4009ZM92.8989 39.0107C92.4009 39.0107 92.0713 39.0522 91.9102 39.1353C91.6318 39.2866 91.4927 39.4917 91.4927 39.7505C91.4927 39.9995 91.6367 40.2241 91.9248 40.4243C92.2129 40.6294 92.7549 40.7319 93.5508 40.7319C94.2295 40.7319 94.7617 40.6416 95.1475 40.4609C95.5381 40.2803 95.7334 40.0264 95.7334 39.6992C95.7334 39.5771 95.6968 39.4746 95.6235 39.3916C95.4917 39.2451 95.2915 39.145 95.0229 39.0913C94.7593 39.0376 94.0513 39.0107 92.8989 39.0107ZM103.504 34.3306H99.7471C99.791 35.2388 100.033 35.9565 100.472 36.4839C100.809 36.8892 101.214 37.0918 101.688 37.0918C101.981 37.0918 102.247 37.0112 102.486 36.8501C102.726 36.6841 102.982 36.3887 103.255 35.9639L103.504 36.125C103.133 36.8818 102.723 37.4189 102.274 37.7363C101.825 38.0488 101.305 38.2051 100.714 38.2051C99.6982 38.2051 98.9292 37.8145 98.4067 37.0332C97.9868 36.4033 97.7769 35.6221 97.7769 34.6895C97.7769 33.5469 98.0845 32.6387 98.6997 31.9648C99.3198 31.2861 100.045 30.9468 100.875 30.9468C101.568 30.9468 102.169 31.2324 102.677 31.8037C103.189 32.3701 103.465 33.2124 103.504 34.3306ZM101.703 33.8398C101.703 33.0537 101.659 32.5142 101.571 32.2212C101.488 31.9282 101.356 31.7061 101.175 31.5547C101.073 31.4668 100.936 31.4229 100.765 31.4229C100.511 31.4229 100.304 31.5474 100.143 31.7964C99.8545 32.231 99.7104 32.8267 99.7104 33.5835V33.8398H101.703ZM107.086 28.647V31.1519H108.712V31.877H107.086V36.103C107.086 36.4985 107.103 36.7549 107.137 36.8721C107.176 36.9844 107.242 37.0771 107.335 37.1504C107.428 37.2188 107.513 37.2529 107.591 37.2529C107.909 37.2529 108.209 37.0112 108.492 36.5278L108.712 36.689C108.316 37.6265 107.674 38.0952 106.786 38.0952C106.351 38.0952 105.982 37.9756 105.68 37.7363C105.382 37.4922 105.191 37.2212 105.108 36.9233C105.06 36.7573 105.035 36.3081 105.035 35.5757V31.877H104.142V31.6206C104.757 31.186 105.279 30.7295 105.709 30.251C106.144 29.7725 106.522 29.2378 106.844 28.647H107.086ZM117.442 30.9614L117.552 33.2979H117.303C117.005 32.6045 116.695 32.1309 116.373 31.877C116.056 31.623 115.738 31.4961 115.421 31.4961C115.221 31.4961 115.05 31.5645 114.908 31.7012C114.767 31.833 114.696 31.9868 114.696 32.1626C114.696 32.2944 114.745 32.4214 114.842 32.5435C114.999 32.7437 115.436 33.0879 116.153 33.5762C116.871 34.0596 117.342 34.4722 117.567 34.814C117.796 35.1509 117.911 35.5293 117.911 35.9492C117.911 36.3301 117.816 36.7036 117.625 37.0698C117.435 37.436 117.167 37.7168 116.82 37.9121C116.473 38.1074 116.09 38.2051 115.67 38.2051C115.343 38.2051 114.906 38.1025 114.359 37.8975C114.212 37.8438 114.112 37.8169 114.059 37.8169C113.897 37.8169 113.763 37.939 113.656 38.1831H113.414L113.297 35.7222H113.546C113.766 36.3667 114.066 36.8501 114.447 37.1724C114.833 37.4946 115.196 37.6558 115.538 37.6558C115.772 37.6558 115.963 37.585 116.109 37.4434C116.261 37.2969 116.336 37.1211 116.336 36.916C116.336 36.6816 116.263 36.479 116.117 36.3081C115.97 36.1372 115.643 35.8784 115.135 35.5317C114.388 35.0142 113.905 34.6187 113.685 34.3452C113.363 33.9448 113.202 33.5029 113.202 33.0195C113.202 32.4922 113.382 32.0161 113.744 31.5913C114.11 31.1616 114.637 30.9468 115.326 30.9468C115.697 30.9468 116.056 31.0371 116.402 31.2178C116.534 31.291 116.642 31.3276 116.725 31.3276C116.812 31.3276 116.883 31.3105 116.937 31.2764C116.991 31.2373 117.076 31.1323 117.193 30.9614H117.442ZM121.676 28.647V31.1519H123.302V31.877H121.676V36.103C121.676 36.4985 121.693 36.7549 121.727 36.8721C121.766 36.9844 121.832 37.0771 121.925 37.1504C122.018 37.2188 122.103 37.2529 122.181 37.2529C122.499 37.2529 122.799 37.0112 123.082 36.5278L123.302 36.689C122.906 37.6265 122.264 38.0952 121.375 38.0952C120.941 38.0952 120.572 37.9756 120.27 37.7363C119.972 37.4922 119.781 37.2212 119.698 36.9233C119.649 36.7573 119.625 36.3081 119.625 35.5757V31.877H118.731V31.6206C119.347 31.186 119.869 30.7295 120.299 30.251C120.733 29.7725 121.112 29.2378 121.434 28.647H121.676ZM127.733 36.9893C126.898 37.7266 126.148 38.0952 125.484 38.0952C125.094 38.0952 124.769 37.9683 124.51 37.7144C124.251 37.4556 124.122 37.1333 124.122 36.7476C124.122 36.2251 124.347 35.7563 124.796 35.3413C125.245 34.9214 126.224 34.3647 127.733 33.6714V32.9829C127.733 32.4653 127.704 32.1406 127.645 32.0088C127.591 31.8721 127.486 31.7549 127.33 31.6572C127.174 31.5547 126.998 31.5034 126.803 31.5034C126.485 31.5034 126.224 31.5742 126.019 31.7158C125.892 31.8037 125.829 31.9062 125.829 32.0234C125.829 32.126 125.897 32.2529 126.034 32.4043C126.219 32.6143 126.312 32.8169 126.312 33.0122C126.312 33.2515 126.222 33.4565 126.041 33.6274C125.865 33.7935 125.633 33.8765 125.345 33.8765C125.038 33.8765 124.779 33.7837 124.569 33.5981C124.364 33.4126 124.261 33.1953 124.261 32.9463C124.261 32.5947 124.4 32.2603 124.679 31.9429C124.957 31.6206 125.345 31.374 125.843 31.2031C126.341 31.0322 126.859 30.9468 127.396 30.9468C128.045 30.9468 128.558 31.0859 128.934 31.3643C129.315 31.6377 129.562 31.9355 129.674 32.2578C129.742 32.4629 129.776 32.9341 129.776 33.6714V36.3301C129.776 36.6426 129.789 36.8403 129.813 36.9233C129.837 37.0015 129.874 37.0601 129.923 37.0991C129.972 37.1382 130.028 37.1577 130.091 37.1577C130.218 37.1577 130.348 37.0674 130.479 36.8867L130.699 37.0625C130.455 37.4238 130.201 37.6875 129.938 37.8535C129.679 38.0146 129.383 38.0952 129.051 38.0952C128.661 38.0952 128.355 38.0049 128.136 37.8242C127.916 37.6387 127.782 37.3604 127.733 36.9893ZM127.733 36.4546V34.1621C127.142 34.5088 126.703 34.8799 126.415 35.2754C126.224 35.5391 126.129 35.8052 126.129 36.0737C126.129 36.2983 126.209 36.4961 126.371 36.667C126.493 36.7988 126.664 36.8647 126.883 36.8647C127.127 36.8647 127.411 36.728 127.733 36.4546ZM134.295 31.1519V32.7046C134.75 31.9966 135.147 31.5278 135.489 31.2983C135.831 31.064 136.161 30.9468 136.478 30.9468C136.751 30.9468 136.969 31.0322 137.13 31.2031C137.296 31.3691 137.379 31.606 137.379 31.9136C137.379 32.2407 137.298 32.4946 137.137 32.6753C136.981 32.856 136.791 32.9463 136.566 32.9463C136.307 32.9463 136.083 32.8633 135.892 32.6973C135.702 32.5312 135.589 32.4385 135.555 32.4189C135.506 32.3896 135.45 32.375 135.387 32.375C135.245 32.375 135.111 32.4287 134.984 32.5361C134.784 32.7021 134.632 32.939 134.53 33.2466C134.374 33.7202 134.295 34.2427 134.295 34.814V36.3887L134.303 36.7988C134.303 37.0771 134.32 37.2554 134.354 37.3335C134.413 37.4653 134.498 37.563 134.61 37.6265C134.728 37.6851 134.923 37.7217 135.196 37.7363V38H131.498V37.7363C131.795 37.7119 131.996 37.6313 132.098 37.4946C132.206 37.353 132.259 36.9844 132.259 36.3887V32.6021C132.259 32.2114 132.24 31.9624 132.201 31.855C132.152 31.7183 132.081 31.6182 131.988 31.5547C131.896 31.4912 131.732 31.4473 131.498 31.4229V31.1519H134.295ZM140.836 28.647V31.1519H142.462V31.877H140.836V36.103C140.836 36.4985 140.853 36.7549 140.887 36.8721C140.926 36.9844 140.992 37.0771 141.085 37.1504C141.178 37.2188 141.263 37.2529 141.341 37.2529C141.659 37.2529 141.959 37.0112 142.242 36.5278L142.462 36.689C142.066 37.6265 141.424 38.0952 140.536 38.0952C140.101 38.0952 139.732 37.9756 139.43 37.7363C139.132 37.4922 138.941 37.2212 138.858 36.9233C138.81 36.7573 138.785 36.3081 138.785 35.5757V31.877H137.892V31.6206C138.507 31.186 139.029 30.7295 139.459 30.251C139.894 29.7725 140.272 29.2378 140.594 28.647H140.836ZM148.915 34.3306H145.157C145.201 35.2388 145.443 35.9565 145.882 36.4839C146.219 36.8892 146.625 37.0918 147.098 37.0918C147.391 37.0918 147.657 37.0112 147.896 36.8501C148.136 36.6841 148.392 36.3887 148.666 35.9639L148.915 36.125C148.543 36.8818 148.133 37.4189 147.684 37.7363C147.235 38.0488 146.715 38.2051 146.124 38.2051C145.108 38.2051 144.339 37.8145 143.817 37.0332C143.397 36.4033 143.187 35.6221 143.187 34.6895C143.187 33.5469 143.495 32.6387 144.11 31.9648C144.73 31.2861 145.455 30.9468 146.285 30.9468C146.979 30.9468 147.579 31.2324 148.087 31.8037C148.6 32.3701 148.875 33.2124 148.915 34.3306ZM147.113 33.8398C147.113 33.0537 147.069 32.5142 146.981 32.2212C146.898 31.9282 146.766 31.7061 146.585 31.5547C146.483 31.4668 146.346 31.4229 146.175 31.4229C145.921 31.4229 145.714 31.5474 145.553 31.7964C145.265 32.231 145.121 32.8267 145.121 33.5835V33.8398H147.113ZM156.437 28.0684V35.9492C156.437 36.4814 156.451 36.7964 156.48 36.894C156.52 37.0552 156.593 37.1748 156.7 37.2529C156.812 37.3311 157.005 37.3799 157.279 37.3994V37.6411L154.386 38.2051V37.1211C154.039 37.541 153.729 37.8267 153.456 37.978C153.187 38.1294 152.882 38.2051 152.54 38.2051C151.666 38.2051 150.975 37.8145 150.467 37.0332C150.057 36.3984 149.852 35.6196 149.852 34.6968C149.852 33.9595 149.979 33.3003 150.233 32.7192C150.487 32.1333 150.833 31.6914 151.273 31.3936C151.717 31.0957 152.193 30.9468 152.701 30.9468C153.028 30.9468 153.319 31.0103 153.573 31.1372C153.827 31.2642 154.098 31.4863 154.386 31.8037V29.7383C154.386 29.2158 154.364 28.9009 154.32 28.7935C154.261 28.6519 154.173 28.5469 154.056 28.4785C153.939 28.4102 153.719 28.376 153.397 28.376V28.0684H156.437ZM154.386 32.7119C154.024 32.0186 153.583 31.6719 153.06 31.6719C152.879 31.6719 152.73 31.7207 152.613 31.8184C152.433 31.9697 152.284 32.2358 152.167 32.6167C152.054 32.9976 151.998 33.5811 151.998 34.3672C151.998 35.2314 152.062 35.8711 152.188 36.2861C152.315 36.7012 152.489 37.0015 152.708 37.187C152.821 37.2798 152.975 37.3262 153.17 37.3262C153.6 37.3262 154.005 36.9893 154.386 36.3154V32.7119Z" fill="white"/>
<defs>
<filter id="filter0_d_1_39" x="0" y="0" width="260" height="90" filterUnits="userSpaceOnUse" color-interpolation-filters="sRGB">
<feFlood flood-opacity="0" result="BackgroundImageFix"/>
<feColorMatrix in="SourceAlpha" type="matrix" values="0 0 0 0 0 0 0 0 0 0 0 0 0 0 0 0 0 0 127 0" result="hardAlpha"/>
<feOffset dy="10"/>
<feGaussianBlur stdDeviation="10"/>
<feComposite in2="hardAlpha" operator="out"/>
<feColorMatrix type="matrix" values="0 0 0 0 0 0 0 0 0 0 0 0 0 0 0 0 0 0 0.2 0"/>
<feBlend mode="normal" in2="BackgroundImageFix" result="effect1_dropShadow_1_39"/>
<feBlend mode="normal" in="SourceGraphic" in2="effect1_dropShadow_1_39" result="shape"/>
</filter>
<filter id="filter1_d_1_39" x="187" y="25" width="23" height="23" filterUnits="userSpaceOnUse" color-interpolation-filters="sRGB">
<feFlood flood-opacity="0" result="BackgroundImageFix"/>
<feColorMatrix in="SourceAlpha" type="matrix" values="0 0 0 0 0 0 0 0 0 0 0 0 0 0 0 0 0 0 127 0" result="hardAlpha"/>
<feOffset dy="4"/>
<feGaussianBlur stdDeviation="2"/>
<feComposite in2="hardAlpha" operator="out"/>
<feColorMatrix type="matrix" values="0 0 0 0 0 0 0 0 0 0 0 0 0 0 0 0 0 0 0.25 0"/>
<feBlend mode="normal" in2="BackgroundImageFix" result="effect1_dropShadow_1_39"/>
<feBlend mode="normal" in="SourceGraphic" in2="effect1_dropShadow_1_39" result="shape"/>
</filter>
</defs>
</svg>
