<svg width="240" height="90" viewBox="0 0 240 90" fill="none" xmlns="http://www.w3.org/2000/svg">
<g filter="url(#filter0_d_1_132)">
<rect x="20" y="10" width="200" height="50" rx="25" fill="#8850FF"/>
</g>
<path d="M86.4072 30.6006C87.8838 30.5459 89.0824 30.9766 90.0029 31.8926C90.9281 32.8086 91.3906 33.9548 91.3906 35.3311C91.3906 36.5068 91.0465 37.5413 90.3584 38.4346C89.4469 39.6195 88.1595 40.2119 86.4961 40.2119C84.8281 40.2119 83.5384 39.6468 82.627 38.5166C81.9069 37.6234 81.5469 36.5638 81.5469 35.3379C81.5469 33.9616 82.014 32.8154 82.9482 31.8994C83.887 30.9788 85.04 30.5459 86.4072 30.6006ZM86.4893 31.0381C85.6416 31.0381 84.9967 31.471 84.5547 32.3369C84.1947 33.0479 84.0146 34.0687 84.0146 35.3994C84.0146 36.9808 84.2926 38.1497 84.8486 38.9062C85.236 39.4349 85.7783 39.6992 86.4756 39.6992C86.945 39.6992 87.3369 39.5853 87.6514 39.3574C88.0524 39.0658 88.3646 38.6009 88.5879 37.9629C88.8112 37.3203 88.9229 36.484 88.9229 35.4541C88.9229 34.2282 88.8089 33.3122 88.5811 32.7061C88.3532 32.0954 88.0615 31.6647 87.7061 31.4141C87.3551 31.1634 86.9495 31.0381 86.4893 31.0381ZM98.541 33.6084V38.6123C98.541 39.0999 98.5866 39.4053 98.6777 39.5283C98.7689 39.6468 98.9535 39.722 99.2314 39.7539V40H96.627V39.1455C96.3216 39.5101 96.0163 39.7767 95.7109 39.9453C95.4056 40.1094 95.0638 40.1914 94.6855 40.1914C94.3255 40.1914 94.0042 40.082 93.7217 39.8633C93.4437 39.64 93.2568 39.3802 93.1611 39.084C93.0654 38.7878 93.0176 38.2705 93.0176 37.5322V34.9961C93.0176 34.513 92.972 34.2122 92.8809 34.0938C92.7943 33.9753 92.6097 33.8978 92.3271 33.8613V33.6084H94.9316V37.9766C94.9316 38.4323 94.9521 38.7262 94.9932 38.8584C95.0387 38.9906 95.1071 39.0908 95.1982 39.1592C95.2939 39.2275 95.4033 39.2617 95.5264 39.2617C95.6904 39.2617 95.8385 39.2184 95.9707 39.1318C96.153 39.0133 96.3717 38.7741 96.627 38.4141V34.9961C96.627 34.513 96.5814 34.2122 96.4902 34.0938C96.4036 33.9753 96.2191 33.8978 95.9365 33.8613V33.6084H98.541ZM102.813 33.6084V35.0576C103.237 34.3968 103.609 33.9593 103.928 33.7451C104.247 33.5264 104.554 33.417 104.851 33.417C105.106 33.417 105.309 33.4967 105.459 33.6562C105.614 33.8112 105.691 34.0322 105.691 34.3193C105.691 34.6247 105.616 34.8617 105.466 35.0303C105.32 35.1989 105.142 35.2832 104.933 35.2832C104.691 35.2832 104.481 35.2057 104.304 35.0508C104.126 34.8958 104.021 34.8092 103.989 34.791C103.944 34.7637 103.891 34.75 103.832 34.75C103.7 34.75 103.575 34.8001 103.456 34.9004C103.269 35.0553 103.128 35.2764 103.032 35.5635C102.886 36.0055 102.813 36.4932 102.813 37.0264V38.4961L102.82 38.8789C102.82 39.1387 102.836 39.305 102.868 39.3779C102.923 39.501 103.003 39.5921 103.107 39.6514C103.217 39.7061 103.399 39.7402 103.654 39.7539V40H100.202V39.7539C100.48 39.7311 100.667 39.6559 100.763 39.5283C100.863 39.3962 100.913 39.0521 100.913 38.4961V34.9619C100.913 34.5973 100.895 34.3649 100.858 34.2646C100.813 34.137 100.747 34.0436 100.66 33.9844C100.574 33.9251 100.421 33.8841 100.202 33.8613V33.6084H102.813ZM115.727 30.5186L115.802 33.6084H115.521C115.389 32.8337 115.063 32.2116 114.544 31.7422C114.029 31.2682 113.471 31.0312 112.869 31.0312C112.404 31.0312 112.035 31.1566 111.762 31.4072C111.493 31.6533 111.358 31.9382 111.358 32.2617C111.358 32.4668 111.406 32.6491 111.502 32.8086C111.634 33.0228 111.846 33.2347 112.138 33.4443C112.352 33.5947 112.846 33.8613 113.621 34.2441C114.706 34.7773 115.437 35.2809 115.815 35.7549C116.189 36.2288 116.376 36.7712 116.376 37.3818C116.376 38.1566 116.073 38.8242 115.467 39.3848C114.865 39.9408 114.1 40.2188 113.17 40.2188C112.878 40.2188 112.603 40.1891 112.343 40.1299C112.083 40.0706 111.757 39.959 111.365 39.7949C111.146 39.7038 110.966 39.6582 110.825 39.6582C110.707 39.6582 110.581 39.7038 110.449 39.7949C110.317 39.8861 110.21 40.0251 110.128 40.2119H109.875V36.7119H110.128C110.328 37.6963 110.714 38.4482 111.283 38.9678C111.857 39.4827 112.475 39.7402 113.136 39.7402C113.646 39.7402 114.052 39.6012 114.353 39.3232C114.658 39.0452 114.811 38.7217 114.811 38.3525C114.811 38.1338 114.751 37.9219 114.633 37.7168C114.519 37.5117 114.343 37.318 114.106 37.1357C113.869 36.9489 113.45 36.7074 112.849 36.4111C112.006 35.9964 111.399 35.6432 111.03 35.3516C110.661 35.0599 110.376 34.734 110.176 34.374C109.98 34.014 109.882 33.6175 109.882 33.1846C109.882 32.4463 110.153 31.8174 110.695 31.2979C111.238 30.7783 111.921 30.5186 112.746 30.5186C113.047 30.5186 113.339 30.555 113.621 30.6279C113.835 30.6826 114.095 30.7852 114.4 30.9355C114.71 31.0814 114.927 31.1543 115.05 31.1543C115.168 31.1543 115.262 31.1178 115.33 31.0449C115.398 30.972 115.462 30.7965 115.521 30.5186H115.727ZM122.829 36.5752H119.322C119.363 37.4229 119.589 38.0928 119.999 38.585C120.313 38.9632 120.692 39.1523 121.134 39.1523C121.407 39.1523 121.656 39.0771 121.879 38.9268C122.102 38.7718 122.341 38.4961 122.597 38.0996L122.829 38.25C122.483 38.9564 122.1 39.4577 121.681 39.7539C121.261 40.0456 120.776 40.1914 120.225 40.1914C119.277 40.1914 118.559 39.8268 118.071 39.0977C117.679 38.5098 117.483 37.7806 117.483 36.9102C117.483 35.8438 117.771 34.9961 118.345 34.3672C118.924 33.7337 119.6 33.417 120.375 33.417C121.022 33.417 121.583 33.6836 122.057 34.2168C122.535 34.7454 122.793 35.5316 122.829 36.5752ZM121.147 36.1172C121.147 35.3835 121.106 34.8799 121.024 34.6064C120.947 34.333 120.824 34.1257 120.655 33.9844C120.56 33.9023 120.432 33.8613 120.272 33.8613C120.035 33.8613 119.842 33.9775 119.691 34.21C119.423 34.6156 119.288 35.1715 119.288 35.8779V36.1172H121.147ZM126.288 33.6084V35.0576C126.712 34.3968 127.083 33.9593 127.402 33.7451C127.721 33.5264 128.029 33.417 128.325 33.417C128.58 33.417 128.783 33.4967 128.934 33.6562C129.089 33.8112 129.166 34.0322 129.166 34.3193C129.166 34.6247 129.091 34.8617 128.94 35.0303C128.795 35.1989 128.617 35.2832 128.407 35.2832C128.166 35.2832 127.956 35.2057 127.778 35.0508C127.601 34.8958 127.496 34.8092 127.464 34.791C127.418 34.7637 127.366 34.75 127.307 34.75C127.174 34.75 127.049 34.8001 126.931 34.9004C126.744 35.0553 126.603 35.2764 126.507 35.5635C126.361 36.0055 126.288 36.4932 126.288 37.0264V38.4961L126.295 38.8789C126.295 39.1387 126.311 39.305 126.343 39.3779C126.397 39.501 126.477 39.5921 126.582 39.6514C126.691 39.7061 126.874 39.7402 127.129 39.7539V40H123.677V39.7539C123.955 39.7311 124.142 39.6559 124.237 39.5283C124.338 39.3962 124.388 39.0521 124.388 38.4961V34.9619C124.388 34.5973 124.369 34.3649 124.333 34.2646C124.287 34.137 124.221 34.0436 124.135 33.9844C124.048 33.9251 123.896 33.8841 123.677 33.8613V33.6084H126.288ZM132.741 40.1914L130.588 35.2354C130.328 34.6383 130.125 34.2601 129.979 34.1006C129.875 33.9821 129.72 33.9023 129.515 33.8613V33.6084H132.912V33.8613C132.698 33.8613 132.552 33.9001 132.475 33.9775C132.365 34.0778 132.311 34.1963 132.311 34.333C132.311 34.5016 132.411 34.8184 132.611 35.2832L133.664 37.6826L134.505 35.6113C134.746 35.0189 134.867 34.5996 134.867 34.3535C134.867 34.2122 134.815 34.0983 134.71 34.0117C134.61 33.9206 134.43 33.8704 134.17 33.8613V33.6084H136.262V33.8613C136.061 33.8887 135.897 33.9639 135.77 34.0869C135.642 34.21 135.451 34.5723 135.195 35.1738L133.062 40.1914H132.741ZM138.395 30.5117C138.691 30.5117 138.941 30.6165 139.146 30.8262C139.352 31.0312 139.454 31.2796 139.454 31.5713C139.454 31.863 139.349 32.1113 139.14 32.3164C138.935 32.5215 138.686 32.624 138.395 32.624C138.103 32.624 137.854 32.5215 137.649 32.3164C137.444 32.1113 137.342 31.863 137.342 31.5713C137.342 31.2796 137.444 31.0312 137.649 30.8262C137.854 30.6165 138.103 30.5117 138.395 30.5117ZM139.352 33.6084V38.6738C139.352 39.125 139.404 39.4144 139.509 39.542C139.614 39.665 139.819 39.7357 140.124 39.7539V40H136.672V39.7539C136.954 39.7448 137.164 39.6628 137.301 39.5078C137.392 39.403 137.438 39.125 137.438 38.6738V34.9414C137.438 34.4902 137.385 34.2031 137.28 34.0801C137.175 33.9525 136.973 33.8796 136.672 33.8613V33.6084H139.352ZM145.969 38.3525L146.181 38.5166C145.88 39.0817 145.504 39.5033 145.053 39.7812C144.606 40.0547 144.13 40.1914 143.624 40.1914C142.772 40.1914 142.09 39.8701 141.58 39.2275C141.07 38.585 140.814 37.8125 140.814 36.9102C140.814 36.0397 141.047 35.2741 141.512 34.6133C142.072 33.8158 142.845 33.417 143.829 33.417C144.49 33.417 145.014 33.5833 145.401 33.916C145.793 34.2487 145.989 34.6201 145.989 35.0303C145.989 35.29 145.91 35.4974 145.75 35.6523C145.595 35.8073 145.39 35.8848 145.135 35.8848C144.866 35.8848 144.643 35.7959 144.465 35.6182C144.292 35.4404 144.185 35.1237 144.144 34.668C144.116 34.3809 144.05 34.1803 143.945 34.0664C143.84 33.9525 143.717 33.8955 143.576 33.8955C143.357 33.8955 143.171 34.0117 143.016 34.2441C142.779 34.5951 142.66 35.1328 142.66 35.8574C142.66 36.459 142.756 37.0355 142.947 37.5869C143.139 38.1338 143.401 38.5417 143.733 38.8105C143.984 39.0065 144.28 39.1045 144.622 39.1045C144.845 39.1045 145.057 39.0521 145.258 38.9473C145.458 38.8424 145.695 38.6442 145.969 38.3525ZM152.388 36.5752H148.881C148.922 37.4229 149.147 38.0928 149.558 38.585C149.872 38.9632 150.25 39.1523 150.692 39.1523C150.966 39.1523 151.214 39.0771 151.438 38.9268C151.661 38.7718 151.9 38.4961 152.155 38.0996L152.388 38.25C152.041 38.9564 151.659 39.4577 151.239 39.7539C150.82 40.0456 150.335 40.1914 149.783 40.1914C148.835 40.1914 148.118 39.8268 147.63 39.0977C147.238 38.5098 147.042 37.7806 147.042 36.9102C147.042 35.8438 147.329 34.9961 147.903 34.3672C148.482 33.7337 149.159 33.417 149.934 33.417C150.581 33.417 151.141 33.6836 151.615 34.2168C152.094 34.7454 152.351 35.5316 152.388 36.5752ZM150.706 36.1172C150.706 35.3835 150.665 34.8799 150.583 34.6064C150.506 34.333 150.382 34.1257 150.214 33.9844C150.118 33.9023 149.991 33.8613 149.831 33.8613C149.594 33.8613 149.4 33.9775 149.25 34.21C148.981 34.6156 148.847 35.1715 148.847 35.8779V36.1172H150.706ZM157.234 33.4307L157.337 35.6113H157.104C156.826 34.9642 156.537 34.5221 156.236 34.2852C155.94 34.0482 155.644 33.9297 155.348 33.9297C155.161 33.9297 155.001 33.9935 154.869 34.1211C154.737 34.2441 154.671 34.3877 154.671 34.5518C154.671 34.6748 154.716 34.7933 154.808 34.9072C154.953 35.0941 155.361 35.4154 156.031 35.8711C156.701 36.3223 157.141 36.7074 157.351 37.0264C157.565 37.3408 157.672 37.694 157.672 38.0859C157.672 38.4414 157.583 38.79 157.405 39.1318C157.228 39.4736 156.977 39.7357 156.653 39.918C156.33 40.1003 155.972 40.1914 155.58 40.1914C155.275 40.1914 154.867 40.0957 154.356 39.9043C154.22 39.8542 154.126 39.8291 154.076 39.8291C153.926 39.8291 153.8 39.943 153.7 40.1709H153.475L153.365 37.874H153.598C153.803 38.4756 154.083 38.9268 154.438 39.2275C154.799 39.5283 155.138 39.6787 155.457 39.6787C155.676 39.6787 155.854 39.6126 155.99 39.4805C156.132 39.3438 156.202 39.1797 156.202 38.9883C156.202 38.7695 156.134 38.5804 155.997 38.4209C155.86 38.2614 155.555 38.0199 155.081 37.6963C154.384 37.2132 153.933 36.8441 153.728 36.5889C153.427 36.2152 153.276 35.8027 153.276 35.3516C153.276 34.8594 153.445 34.415 153.782 34.0186C154.124 33.6175 154.616 33.417 155.259 33.417C155.605 33.417 155.94 33.5013 156.264 33.6699C156.387 33.7383 156.487 33.7725 156.564 33.7725C156.646 33.7725 156.713 33.7565 156.763 33.7246C156.813 33.6882 156.893 33.5902 157.002 33.4307H157.234Z" fill="white"/>
<g filter="url(#filter1_d_1_132)">
<rect x="176" y="27" width="15" height="15" rx="7.5" fill="white"/>
<path d="M182.08 30.9848C182.029 31.0401 182 31.1145 182 31.1919C182 31.2694 182.029 31.3437 182.08 31.3991L184.95 34.5L182.08 37.6003C182.029 37.6557 182 37.7301 182 37.8075C182 37.8849 182.029 37.9593 182.08 38.0147C182.105 38.0417 182.135 38.0632 182.168 38.0778C182.201 38.0925 182.236 38.1 182.272 38.1C182.308 38.1 182.343 38.0925 182.376 38.0778C182.409 38.0632 182.439 38.0417 182.464 38.0147L185.516 34.7165C185.57 34.6586 185.6 34.5809 185.6 34.5C185.6 34.4191 185.57 34.3415 185.516 34.2835L182.464 30.9854C182.439 30.9584 182.409 30.9369 182.376 30.9222C182.343 30.9076 182.308 30.9 182.272 30.9C182.236 30.9 182.201 30.9076 182.168 30.9222C182.135 30.9369 182.105 30.9584 182.08 30.9854V30.9848Z" fill="#111111"/>
</g>
<defs>
<filter id="filter0_d_1_132" x="0" y="0" width="240" height="90" filterUnits="userSpaceOnUse" color-interpolation-filters="sRGB">
<feFlood flood-opacity="0" result="BackgroundImageFix"/>
<feColorMatrix in="SourceAlpha" type="matrix" values="0 0 0 0 0 0 0 0 0 0 0 0 0 0 0 0 0 0 127 0" result="hardAlpha"/>
<feOffset dy="10"/>
<feGaussianBlur stdDeviation="10"/>
<feComposite in2="hardAlpha" operator="out"/>
<feColorMatrix type="matrix" values="0 0 0 0 0 0 0 0 0 0 0 0 0 0 0 0 0 0 0.2 0"/>
<feBlend mode="normal" in2="BackgroundImageFix" result="effect1_dropShadow_1_132"/>
<feBlend mode="normal" in="SourceGraphic" in2="effect1_dropShadow_1_132" result="shape"/>
</filter>
<filter id="filter1_d_1_132" x="172" y="27" width="23" height="23" filterUnits="userSpaceOnUse" color-interpolation-filters="sRGB">
<feFlood flood-opacity="0" result="BackgroundImageFix"/>
<feColorMatrix in="SourceAlpha" type="matrix" values="0 0 0 0 0 0 0 0 0 0 0 0 0 0 0 0 0 0 127 0" result="hardAlpha"/>
<feOffset dy="4"/>
<feGaussianBlur stdDeviation="2"/>
<feComposite in2="hardAlpha" operator="out"/>
<feColorMatrix type="matrix" values="0 0 0 0 0 0 0 0 0 0 0 0 0 0 0 0 0 0 0.25 0"/>
<feBlend mode="normal" in2="BackgroundImageFix" result="effect1_dropShadow_1_132"/>
<feBlend mode="normal" in="SourceGraphic" in2="effect1_dropShadow_1_132" result="shape"/>
</filter>
</defs>
</svg>
